PathFileType	4	(X/Y/Z)	Patient4_TMGait_0pt7_01_left_50.trc.trc
DataRate	CameraRate	NumFrames	NumMarkers	Units	OrigDataRate	OrigDataStartFrame	OrigNumFrames
89.171974522293	89.171974522293	6	33	mm	89.171974522293	18	       141
Frame#	Time	Sacral			L.Shoulder			Chest			R.Shoulder			Neck			R.ASIS			L.ASIS			R.Thigh.Superior			R.Thigh.Lateral			R.Thigh.Inferior			R.Patella			L.Thigh.Superior			L.Thigh.Lateral			L.Thigh.Inferior			L.Patella			L.Shank.Superior			L.Shank.Lateral			L.Shank.Inferior			R.Shank.Superior			R.Shank.Lateral			R.Shank.Inferior			R.Heel			R.Midfoot.Superior			R.Midfoot.Lateral			R.Toe			L.Heel			L.Midfoot.Lateral			L.Midfoot.Superior			L.Toe			L.Elbow			L.Wrist			R.Elbow			R.Wrist			
		X1	Y1	Z1	X2	Y2	Z2	X3	Y3	Z3	X4	Y4	Z4	X5	Y5	Z5	X6	Y6	Z6	X7	Y7	Z7	X8	Y8	Z8	X9	Y9	Z9	X10	Y10	Z10	X11	Y11	Z11	X12	Y12	Z12	X13	Y13	Z13	X14	Y14	Z14	X15	Y15	Z15	X16	Y16	Z16	X17	Y17	Z17	X18	Y18	Z18	X19	Y19	Z19	X20	Y20	Z20	X21	Y21	Z21	X22	Y22	Z22	X23	Y23	Z23	X24	Y24	Z24	X25	Y25	Z25	X26	Y26	Z26	X27	Y27	Z27	X28	Y28	Z28	X29	Y29	Z29	X30	Y30	Z30	X31	Y31	Z31	X32	Y32	Z32	X33	Y33	Z33	

18	58.310642857143	870.638366112722	1013.711674205245	537.596174577851	1075.562574719510	1418.959225099942	334.323491983820	1185.348448467658	1341.176126928782	487.487578365043	1126.428208331271	1430.354930676126	664.197672674597	1097.773466376316	1481.603053950427	487.116934380043	1095.657505971077	938.398307828789	647.864969605628	1072.026701070140	944.464238210705	372.385915806749	1092.260683692088	727.876472501434	623.845773115926	983.852212682055	635.857876719177	680.630846572841	1046.809417931794	569.375274378129	603.484502320595	1028.895278798635	487.166573166905	606.217258757280	1147.637501501455	782.900203825867	396.368872817490	1112.317668694968	656.632073316942	305.933986476702	1223.000459738965	604.539372920385	362.345191441698	1257.093678834763	539.850206943837	352.154330760095	1240.058870527345	465.138325064757	341.803418443045	1172.548742546091	336.567650342632	287.906876152275	1262.143250375837	235.639942049702	335.058326092354	994.397031582237	403.908984776102	609.555072886246	915.207779158693	303.385783041023	667.148706192871	954.708812291776	207.903277995749	600.787862763415	814.860336793371	44.228852454315	561.991890089120	987.390991410040	97.154797006327	599.084304176908	898.143043696134	36.922020868404	635.407876828313	1106.714617641968	42.390746235987	624.697680533613	1183.661009799072	51.490449552832	369.573212406828	1255.009619833752	61.409165559809	287.532091482863	1323.319230114081	141.655692023483	308.411736876552	1457.382174272544	118.251638277439	277.150872503157	902.752560177996	1112.149507674942	239.826171961017	827.824948705812	865.584733278800	237.195206362973	1236.230394529419	1121.169871729524	804.173372538311	1470.500130912431	1138.018813334614	705.730789631548	
19	58.321857142857	871.658259047845	1012.601150240872	535.804260859064	1075.096690321136	1418.614503139587	332.914354485940	1185.170871355874	1340.817874544525	485.844718939144	1125.911105749719	1429.470813320189	662.639982067550	1097.135584204289	1480.855805518384	485.837735094773	1096.498214171963	937.605325529466	646.147014563775	1073.211786401398	943.140755499213	370.519311827335	1090.500206659039	726.423794726311	622.628988944313	980.674538136817	635.721345299571	679.783469487054	1042.410790557666	568.425081872031	602.596796169672	1023.675992835068	486.393266090738	605.520989311522	1147.354037266955	779.855164576703	394.908945139671	1109.619403466772	652.797567710878	306.055017703043	1220.565138295673	600.534174257235	361.545294383026	1254.026099303011	536.550767474922	352.431596719014	1238.038376768157	462.149030864584	342.383172624121	1172.120121138155	332.070685222651	290.367606447480	1264.099840466511	233.046607370980	337.119775059308	988.409225756733	403.521951368179	609.024801765727	908.746870443144	303.640144119823	667.001466216335	947.522806615334	207.824461440196	600.681895370556	806.940030822620	44.334449450784	562.090911313541	979.503515978022	97.122794547826	599.152966506816	890.219847016207	36.880454661061	635.475585859086	1098.786261532307	42.275655631288	624.705547493463	1189.114583754219	48.335786974887	373.717710726131	1259.679869760223	58.255200012319	291.038254453109	1327.327980399721	139.236272294622	310.693321761585	1461.374029753996	116.851342507990	278.640256899500	897.878765926523	1115.508590910605	237.772686078903	819.531584311686	869.760240060010	236.662373725778	1240.412530206450	1121.923353732264	800.027143012418	1470.801493832019	1155.670661105339	698.849449110251	
20	58.333071428571	872.865631862814	1011.400611874765	533.765392600421	1074.609240105821	1418.269862296396	331.369821503851	1185.007909855032	1340.549681720585	484.082177946621	1125.277660065566	1428.604846809418	660.942891243971	1096.387153387404	1480.099745138565	484.426795204206	1097.491149261629	936.721953161635	644.265316891861	1074.713571770280	941.830291709174	368.532450597808	1089.038656954288	724.913086193563	621.241387910617	977.924641786243	635.477516167197	678.789910011712	1038.509916453207	567.421244613974	601.556083258872	1018.964591390371	485.498449893430	604.703886299548	1147.522757860229	776.801082763748	393.425866638955	1107.297300527506	648.937435172499	306.407671286617	1218.461954454205	596.498087634396	360.986971760742	1251.049254374587	532.841453213618	353.009945314494	1235.720047638457	458.670481173562	343.219108929974	1170.490064781745	327.567388843164	293.307754913607	1264.178270459543	229.929825531392	339.636458464830	982.922842351395	403.014317277439	608.393441272515	902.627454303349	303.863255428167	666.759520208105	940.529690890331	207.662893155842	600.517339040243	799.039018543500	44.462920390608	562.196650416399	971.641051931471	97.094026323176	599.220012408915	882.314064375157	36.844456142102	635.559392743932	1090.866648367819	42.129417135076	624.720610919708	1191.314180655190	45.600044498154	378.413468846851	1261.034084347083	54.971910990884	295.003803661127	1328.779910553128	135.850215903009	313.507368206493	1462.471709161941	113.223390608637	280.432013471173	893.592164815275	1118.590324600677	235.745458273162	812.285396712275	873.500788127404	236.115178462804	1244.343691263278	1122.645466701274	795.669893722678	1469.926121292978	1172.455764985979	692.294504621627	
21	58.344285714286	874.220103297095	1010.114420697465	531.481201194053	1074.126374319638	1417.898698964282	329.674960308593	1184.871387469066	1340.347771180959	482.198592573110	1124.541094297727	1427.754691835234	659.103811535320	1095.550487389471	1479.331051117942	482.866719201281	1098.604256492027	935.745024911698	642.241704347429	1076.499789038562	940.541191697662	366.449153021717	1087.934320250978	723.352018065862	619.705938752166	975.669409484883	635.094602866599	677.621421300831	1035.217099845754	566.338663472976	600.353938208826	1014.865726936300	484.441764539634	603.717194118622	1148.154308363232	773.781874278632	391.974719649990	1105.446010032769	645.154179762116	306.962312377373	1216.734397320714	592.509215049235	360.750732278261	1248.219301659457	528.810433219079	353.962552396001	1233.213643996050	454.812078384397	344.323005106222	1167.923292919801	323.134412400997	296.496133399169	1262.622116483301	226.355822385328	342.492209012946	978.023198977101	402.344651519887	607.617930685646	896.924513655512	304.031322424320	666.383565187099	933.768135687624	207.391470737771	600.255349324071	791.159212501500	44.624480242866	562.303026523373	963.808418442320	97.071235820987	599.274474084954	874.429346689040	36.826488493335	635.657626184489	1082.960980183500	41.944923207576	624.745726278600	1190.489481504030	43.258151822452	383.288520681787	1259.421983542872	51.636065836734	299.154663737269	1327.977221919485	131.593609444795	316.759721719774	1461.059487881806	107.529378592322	282.591055622325	889.921546418886	1121.295189046180	233.741817460645	806.067586188889	876.744230120383	235.517535122264	1248.011177527613	1123.332348125730	791.176518801736	1468.029155771994	1188.248755508420	686.090380611694	
22	58.355500000000	875.673744608911	1008.757570504079	528.966702854722	1073.678318513382	1417.484301804646	327.816961729473	1184.772948827020	1340.192305341545	480.194902112633	1123.724439067187	1426.928984538570	657.122848118254	1094.659076148206	1478.556743344187	481.139170079988	1099.803087748952	934.683804227066	640.102910165337	1078.519679901547	939.291819802427	364.294857799224	1087.229973224122	721.759377566079	618.047234631301	973.957697053843	634.553591851053	676.255186287084	1032.619234953897	565.162554954456	598.985975983509	1011.464660618624	483.191383260110	602.520362105624	1149.237888120973	770.856266893469	390.599519594900	1104.144738415555	641.572549132907	307.642847303055	1215.415622417223	588.665163411527	360.869164179288	1245.597736541201	524.594939016367	355.297990987871	1230.649096431128	450.735669523912	345.651692333132	1164.744917694175	318.888387996212	299.650766832864	1259.756930023510	222.466868625318	345.522199831125	973.765944840884	401.482029219177	606.660790165633	891.692691645216	304.133529652950	665.839115816903	927.269131779148	206.998737695644	599.864863969311	783.303065326571	44.844228618952	562.404594685636	956.015571576118	97.060496108794	599.307422071008	866.570110776148	36.845050278258	635.766435652544	1075.075861647870	41.715205046527	624.782654751408	1187.034050764468	41.314898400573	387.970045444052	1255.337327365940	48.373295621628	303.204220129248	1325.309224051063	126.677308149250	320.296564164215	1457.611398864307	100.134863045844	285.118828185619	886.896018503589	1123.535539570333	231.754528672021	800.874542498370	879.433202421794	234.830911268296	1251.389770549533	1123.973771561425	786.624785240929	1465.268810509232	1202.946280127042	680.257105916775	
23	58.366714285714	877.174026259300	1007.358446383918	526.251336182680	1073.295358771653	1417.024088704072	325.788223642880	1184.722071672386	1340.072001536002	478.076058098933	1122.859414073869	1426.150219230117	655.004065160520	1093.754638562692	1477.796975133940	479.228331024547	1101.052335707685	933.562202690019	637.876634615071	1080.705041723410	938.113182610917	362.093707115894	1086.947467887372	720.166976509952	616.285379180080	972.818687882070	633.852556623036	674.677038679933	1030.774871087573	563.893483202031	597.451569169215	1008.823502270247	481.729071142379	601.088854586436	1150.739592256570	768.103808360394	389.326797718400	1103.455873470519	638.337895356286	308.329483102254	1214.527570060471	585.085705564043	361.317259338714	1243.251329147949	520.377976543356	356.943983419985	1228.166722642736	446.643234375372	347.104972721735	1161.302347742245	314.974692351725	302.468376838512	1255.952891862712	218.463018623609	348.525151685094	970.177533280528	400.412352973892	605.496578219714	886.963563211302	304.177474500755	665.101740591883	921.055662810157	206.493867044299	599.328081907311	775.474628249765	45.165476137707	562.497526251963	948.279486648142	97.071362381916	599.313452037651	858.742056230548	36.925444080939	635.880182654873	1067.219187279786	41.434888863021	624.831792615740	1181.463917170830	39.788192588064	392.133208058780	1249.359899768454	45.329669016854	306.886918384878	1321.201276318497	121.402578428457	323.910899341986	1452.634545152069	91.581183380139	287.932163824092	884.547299049013	1125.240692411381	229.772669936558	796.717879495923	881.517032323001	234.015247037080	1254.439541582171	1124.554131210086	782.091751345572	1461.799217807193	1216.464233101933	674.812625590751	
